:SAMPLES-PER-SECOND 30
:FRAME-RANGE 1-4244
:FULLY-SPECIFIED
:DEGREES
3051
root  -3.64725 14.2031 71.6372 -72.7546 -60.8185 156.856
RightUpLeg  -27.4569 -14.8513 -33.2351
RightLeg  78.3842 0.0260335 -1.42412
RightFoot  -35.82 1.69637 8.93588
RightToes  -1.33073e-015 0 -3.6325e-017
Spine  28.7777 -3.05252 3.23798
Spine1  -3.17936 3.13331 -39.3107
HEad  -19.8271 21.7913 -26.1334
LeftShoulder1  -0.23493 6.1367 -0.0556479
LeftArm  2.9393 -32.6099 -52.053
LeftForeArm  103.675 -80.8774 -78.085
LeftHand  -0.0645259 4.24879 4.63716
RightShoulder  2.35236 12.8076 7.12317
RightArm  23.9658 14.1132 65.0165
RightForeArm  136.969 79.7939 116.575
RightHand  2.35277 8.34587 19.2428
LeftUpLeg  -99.319 20.2014 6.95543
LeftLeg  125.332 12.2987 -16.0528
LeftFoot  -30.491 -1.86007 -12.0772
LeftToes  2.72522e-012 8.43823e-011 6.24977e-012
3052
root  -3.83696 14.3278 72.7842 -74.4735 -60.4064 157.832
RightUpLeg  -27.6765 -20.046 -31.3115
RightLeg  81.092 0.500584 1.87041
RightFoot  -35.3225 1.71263 9.18603
RightToes  -1.33073e-015 0 -3.6325e-017
Spine  28.6262 -4.45868 5.0691
Spine1  -3.11498 2.37378 -40.6103
HEad  -20.7155 21.0386 -22.3942
LeftShoulder1  -0.229477 7.05086 2.41248
LeftArm  4.49603 -30.9438 -56.7278
LeftForeArm  113.916 -81.1416 -86.3156
LeftHand  -0.0441943 4.75345 4.06122
RightShoulder  2.70098 12.8631 9.48536
RightArm  22.4642 13.5647 62.1977
RightForeArm  148.726 78.894 125.922
RightHand  2.503 9.74608 18.5438
LeftUpLeg  -98.6414 18.3098 7.15825
LeftLeg  125.754 15.3972 -19.3473
LeftFoot  -29.3329 -1.75914 -12.1875
LeftToes  2.72522e-012 8.43823e-011 6.24977e-012
3053
root  -3.82243 14.4738 73.6662 -74.1897 -59.8479 156.591
RightUpLeg  -28.1064 -25.9781 -28.439
RightLeg  83.8386 0.731835 6.18745
RightFoot  -35.0961 2.04165 10.8231
RightToes  -1.33073e-015 0 -3.6325e-017
Spine  28.8628 -5.7956 5.74392
Spine1  -2.83335 1.39814 -40.6681
HEad  -21.9212 21.0787 -20.2699
LeftShoulder1  -0.267139 8.78177 3.83903
LeftArm  6.67008 -30.8193 -60.2455
LeftForeArm  120.9 -81.2198 -91.819
LeftHand  -0.0335944 5.08206 3.62884
RightShoulder  2.89425 13.0925 10.5401
RightArm  21.5842 13.3334 59.6381
RightForeArm  158.71 77.5961 134.262
RightHand  2.39147 10.4116 16.9487
LeftUpLeg  -98.3372 15.9975 8.78446
LeftLeg  125.325 14.6556 -18.7874
LeftFoot  -29.4084 -1.69775 -11.7565
LeftToes  2.72522e-012 8.43823e-011 6.24977e-012
3054
root  -3.79327 14.5477 74.4122 -73.5297 -58.7251 154.92
RightUpLeg  -28.9766 -33.4197 -25.3946
RightLeg  86.1672 0.518563 7.24961
RightFoot  -34.9324 2.26829 11.9711
RightToes  -1.33073e-015 0 -3.6325e-017
Spine  29.1734 -6.72923 5.8793
Spine1  -2.30686 0.789777 -40.5169
HEad  -22.4919 20.4482 -17.3409
LeftShoulder1  -0.176389 10.2176 6.48943
LeftArm  8.89291 -31.0711 -64.403
LeftForeArm  125.192 -81.2041 -95.6283
LeftHand  -0.0268373 5.36062 2.91733
RightShoulder  3.03187 13.3702 11.1313
RightArm  20.2683 11.8487 57.2281
RightForeArm  167.58 76.1736 140.815
RightHand  1.84407 11.1962 12.372
LeftUpLeg  -97.8717 13.8411 11.4051
LeftLeg  124.022 15.8903 -21.0612
LeftFoot  -29.9258 -1.85505 -12.3972
LeftToes  2.72522e-012 8.43823e-011 6.24977e-012
3055
root  -3.73818 14.5046 75.1143 -74.5891 -57.7899 155.292
RightUpLeg  -31.4965 -39.9399 -21.2695
RightLeg  88.3376 0.255589 6.01
RightFoot  -35.3922 2.41663 12.4421
RightToes  -1.33073e-015 0 -3.6325e-017
Spine  29.1163 -6.87817 5.64194
Spine1  -1.79179 0.746299 -39.9608
HEad  -22.9724 20.5168 -14.0633
LeftShoulder1  -0.0761151 11.1884 8.2955
LeftArm  10.9485 -32.2115 -67.4044
LeftForeArm  125.736 -81.2387 -95.4211
LeftHand  -0.0230697 5.56704 2.77154
RightShoulder  3.1566 13.3595 11.9758
RightArm  19.2543 10.7187 55.1094
RightForeArm  174.87 74.6756 145.912
RightHand  1.12081 11.6102 7.1781
LeftUpLeg  -97.9501 13.279 14.0581
LeftLeg  123.122 18.6187 -24.8195
LeftFoot  -25.2837 -1.44872 -13.0399
LeftToes  2.72522e-012 8.43823e-011 6.24977e-012
3056
root  -3.64752 14.431 75.7628 -78.0662 -57.2797 157.689
RightUpLeg  -34.1778 -44.2138 -17.0152
RightLeg  89.9914 0.0566726 6.85539
RightFoot  -35.6862 2.65402 13.3869
RightToes  -1.33073e-015 0 -3.6325e-017
Spine  29.6447 -6.61927 5.69058
Spine1  -1.34818 1.21792 -39.6858
HEad  -22.9716 21.2319 -11.5909
LeftShoulder1  0.00772539 11.6267 9.49924
LeftArm  12.2389 -32.8143 -70.0625
LeftForeArm  124.895 -81.2585 -94.4133
LeftHand  -0.0171354 5.86398 2.83681
RightShoulder  3.14907 13.325 11.9693
RightArm  18.2097 9.83986 54.6371
RightForeArm  -176.376 74.2499 148.197
RightHand  0.317498 11.6159 1.72773
LeftUpLeg  -97.4091 13.76 15.8854
LeftLeg  123.843 18.9774 -24.6353
LeftFoot  -13.8644 -0.245252 -14.8224
LeftToes  2.72522e-012 8.43823e-011 6.24977e-012
3057
root  -3.49545 14.4114 76.2951 -81.3216 -56.6848 160.091
RightUpLeg  -37.3792 -47.4373 -12.444
RightLeg  91.0005 -0.186887 9.19803
RightFoot  -36.3145 2.93368 14.31
RightToes  -1.33073e-015 0 -3.6325e-017
Spine  30.0292 -6.30077 4.9056
Spine1  -1.15129 1.34193 -38.4793
HEad  -22.3523 22.3276 -10.3889
LeftShoulder1  -0.0244798 12.0674 9.07614
LeftArm  12.2724 -33.5287 -70.4014
LeftForeArm  126.143 -81.2221 -96.0154
LeftHand  -0.0141117 6.11404 2.59007
RightShoulder  3.14993 13.2592 12.0585
RightArm  17.9894 10.4839 53.8906
RightForeArm  -170.979 73.7236 150.004
RightHand  0.164898 9.03356 0.928401
LeftUpLeg  -96.8738 14.5741 17.2899
LeftLeg  123.476 20.1774 -26.2163
LeftFoot  -5.00343 1.06745 -18.5994
LeftToes  2.72522e-012 8.43823e-011 6.24977e-012
3058
root  -3.32308 14.4534 76.7541 -84.5294 -55.9384 162.545
RightUpLeg  -40.8447 -49.5353 -8.5661
RightLeg  91.8963 -0.511605 11.7825
RightFoot  -37.0561 3.24623 15.2611
RightToes  -1.33073e-015 0 -3.6325e-017
Spine  30.6017 -5.82255 4.35398
Spine1  -1.20377 1.66439 -37.5331
HEad  -21.9301 22.2786 -9.53615
LeftShoulder1  -0.0213733 12.2121 9.12097
LeftArm  12.5292 -33.8487 -71.5702
LeftForeArm  122.284 -81.2212 -93.0019
LeftHand  0.00145293 6.54153 3.32213
RightShoulder  3.10224 13.1988 11.8151
RightArm  17.1046 11.5395 52.2415
RightForeArm  -168.88 72.628 152.214
RightHand  0.160749 8.52635 0.950918
LeftUpLeg  -96.2866 14.7303 17.9818
LeftLeg  123.219 21.1025 -27.404
LeftFoot  -1.51514 1.6317 -18.7329
LeftToes  2.72522e-012 8.43823e-011 6.24977e-012
3059
root  -3.07431 14.5509 77.1948 -88.6818 -54.6975 166.011
RightUpLeg  -44.5794 -50.1155 -5.82468
RightLeg  93.4428 -0.892804 12.3957
RightFoot  -38.0194 3.2791 14.8616
RightToes  -1.33073e-015 0 -3.6325e-017
Spine  31.48 -5.10504 3.83682
Spine1  -1.50099 2.3059 -37.3295
HEad  -21.9675 21.8074 -8.60207
LeftShoulder1  -0.102257 11.922 8.04481
LeftArm  12.366 -35.852 -70.7108
LeftForeArm  116.092 -81.1841 -87.7754
LeftHand  0.0111682 6.74801 3.69306
RightShoulder  2.89123 12.9312 10.7148
RightArm  15.9611 13.2512 49.9556
RightForeArm  -171.324 71.0134 154.361
RightHand  0.444809 6.5815 3.95519
LeftUpLeg  -95.6721 15.8416 17.7519
LeftLeg  123.333 21.5884 -27.8072
LeftFoot  -2.62238 1.61572 -20.7877
LeftToes  2.72522e-012 8.43823e-011 6.24977e-012
3060
root  -2.76643 14.6482 77.632 -93.2577 -53.4068 169.799
RightUpLeg  -47.6616 -49.5913 -4.30774
RightLeg  95.1132 -1.31547 12.8261
RightFoot  -39.4721 3.82738 16.2695
RightToes  -1.33073e-015 0 -3.6325e-017
Spine  32.2945 -4.19003 3.60354
Spine1  -1.64942 3.25633 -37.2797
HEad  -21.9408 20.7367 -7.38916
LeftShoulder1  -0.137054 11.2205 7.42445
LeftArm  11.1489 -36.712 -69.8462
LeftForeArm  112.206 -81.0488 -86.8704
LeftHand  0.0143024 6.91231 3.60316
RightShoulder  2.67835 13.0803 9.08314
RightArm  14.812 14.5983 48.8568
RightForeArm  -170.409 70.6325 154.994
RightHand  0.480169 6.45238 4.35073
LeftUpLeg  -95.1983 17.0624 17.294
LeftLeg  123.412 21.4375 -27.584
LeftFoot  -1.1647 1.80391 -20.0036
LeftToes  2.72522e-012 8.43823e-011 6.24977e-012
